<svg width="25" height="32" viewBox="0 0 25 32" fill="none" xmlns="http://www.w3.org/2000/svg">
<path fill-rule="evenodd" clip-rule="evenodd" d="M0.223537 25.8961C0.0039224 26.4242 0.128776 27.0955 0.502406 27.3955L4.92126 30.9427C5.29489 31.2426 5.77581 31.0576 5.99543 30.5295C6.21504 30.0014 6.09019 29.3301 5.71656 29.0302L1.2977 25.4829C0.924072 25.183 0.443152 25.368 0.223537 25.8961Z" fill="#FBCC0B"/>
<path fill-rule="evenodd" clip-rule="evenodd" d="M8.39651 10.4462C8.02315 10.7627 7.89904 11.4396 8.1193 11.9582L11.5765 20.0975C11.7968 20.6161 12.278 20.7799 12.6513 20.4634C13.0247 20.1469 13.1488 19.47 12.9285 18.9514L9.47136 10.8121C9.2511 10.2935 8.76987 10.1297 8.39651 10.4462Z" fill="#FBCC0B"/>
<path fill-rule="evenodd" clip-rule="evenodd" d="M23.3938 1.66889C23.8191 1.78102 24.0943 2.3561 24.0085 2.95337L22.1995 15.5466C22.1137 16.1438 21.6994 16.5371 21.2741 16.425C20.8488 16.3129 20.5736 15.7378 20.6594 15.1405L22.4684 2.54731C22.5542 1.95004 22.9685 1.55675 23.3938 1.66889Z" fill="#FBCC0B"/>
</svg>
