<svg width="28" height="39" viewBox="0 0 28 39" fill="none" xmlns="http://www.w3.org/2000/svg">
<path d="M18.6885 33.0875C18.7023 32.8463 18.7439 32.5985 18.7855 32.3574C19.0002 31.1117 19.3466 29.8927 19.8107 28.7139C20.4896 26.9658 21.3764 25.3249 22.554 23.838C23.3091 22.887 24.0365 21.9158 24.7431 20.9313C25.3112 20.1343 25.7615 19.2703 26.1148 18.3594C26.7521 16.7051 26.953 14.9905 26.8214 13.2357C26.6898 11.4408 26.1841 9.74627 25.2835 8.17233C24.0157 5.95542 22.2284 4.25422 19.9008 3.08884C17.5731 1.92345 15.1069 1.5015 12.5091 1.7828C11.0889 1.93685 9.73807 2.30522 8.44954 2.9013C6.19116 3.93943 4.38307 5.47319 3.05298 7.52266C1.57741 9.80654 0.919297 12.2914 1.12712 14.9771C1.25182 16.6582 1.83373 18.2054 2.65118 19.6788C3.47556 21.1657 4.49391 22.532 5.44991 23.9385C6.53061 25.5325 7.48661 27.1869 8.21401 28.9617C8.70586 30.1606 9.17001 31.8015 9.32242 33.0875" stroke="#FBCC0B" stroke-width="2" stroke-miterlimit="10" stroke-linecap="round" stroke-linejoin="round"/>
<path fill-rule="evenodd" clip-rule="evenodd" d="M9.16928 37.5371C9.16928 37.1314 9.49813 36.8026 9.90379 36.8026L17.9834 36.8026C18.3891 36.8026 18.7179 37.1314 18.7179 37.5371C18.7179 37.9427 18.3891 38.2716 17.9834 38.2716L9.90379 38.2716C9.49813 38.2716 9.16928 37.9427 9.16928 37.5371Z" fill="#FBCC0B"/>
<path fill-rule="evenodd" clip-rule="evenodd" d="M14.3109 19.327C14.7165 19.327 15.0454 19.6559 15.0454 20.0615L15.0454 32.4399C15.0454 32.8456 14.7165 33.1745 14.3109 33.1745C13.9052 33.1745 13.5764 32.8456 13.5764 32.4399L13.5764 20.0615C13.5764 19.6559 13.9052 19.327 14.3109 19.327Z" fill="#FBCC0B"/>
<path fill-rule="evenodd" clip-rule="evenodd" d="M7.91538 13.6974C8.20222 13.4106 8.66729 13.4106 8.95413 13.6974L13.9425 18.6858L18.9309 13.6974C19.2177 13.4106 19.6828 13.4106 19.9697 13.6974C20.2565 13.9843 20.2565 14.4493 19.9697 14.7362L14.4619 20.2439C14.175 20.5308 13.71 20.5308 13.4231 20.2439L7.91538 14.7362C7.62853 14.4493 7.62853 13.9843 7.91538 13.6974Z" fill="#FBCC0B"/>
</svg>
