<svg width="36" height="24" viewBox="0 0 36 24" fill="none" xmlns="http://www.w3.org/2000/svg">
<path fill-rule="evenodd" clip-rule="evenodd" d="M10.1855 0.477539H8.00425C7.69434 0.477539 7.39711 0.581702 7.17797 0.767114C6.95883 0.952525 6.83571 1.204 6.83571 1.46621V2.39075H2.45511C1.25878 2.39075 0.291809 3.36233 0.291809 4.55731V20.8897C0.291809 22.0847 1.25878 23.0563 2.45511 23.0563H33.8081C35.0044 23.0563 35.9714 22.0847 35.9714 20.8897V4.55731C35.9714 3.36233 35.0044 2.39075 33.8081 2.39075H29.4274V1.46621C29.4274 1.204 29.3043 0.952525 29.0852 0.767114C28.866 0.581702 28.5688 0.477539 28.2589 0.477539H26.0776C25.7677 0.477539 25.4705 0.581702 25.2514 0.767114C25.0322 0.952525 24.9091 1.204 24.9091 1.46621V2.39075H11.3541V1.46621C11.3541 1.204 11.2309 0.952525 11.0118 0.767114C10.7927 0.581702 10.4954 0.477539 10.1855 0.477539ZM1.76083 4.55731C1.76083 4.1705 2.07325 3.85978 2.45511 3.85978H33.8081C34.1899 3.85978 34.5023 4.1705 34.5023 4.55731V20.8897C34.5023 21.2765 34.1899 21.5872 33.8081 21.5872H2.45511C2.07325 21.5872 1.76083 21.2765 1.76083 20.8897V4.55731ZM26.8456 10.1639C26.8456 9.75827 26.5168 9.42941 26.1111 9.42941C25.7055 9.42941 25.3766 9.75827 25.3766 10.1639V11.9893H23.5292C23.1235 11.9893 22.7947 12.3181 22.7947 12.7238C22.7947 13.1294 23.1235 13.4583 23.5292 13.4583H25.3766V15.9229C25.3766 16.3286 25.7055 16.6574 26.1111 16.6574C26.5168 16.6574 26.8456 16.3286 26.8456 15.9229V13.4583H29.3385C29.7442 13.4583 30.073 13.1294 30.073 12.7238C30.073 12.3181 29.7442 11.9893 29.3385 11.9893H26.8456V10.1639ZM6.92466 11.9893C6.519 11.9893 6.19015 12.3181 6.19015 12.7238C6.19015 13.1294 6.519 13.4583 6.92466 13.4583H12.734C13.1396 13.4583 13.4685 13.1294 13.4685 12.7238C13.4685 12.3181 13.1396 11.9893 12.734 11.9893H6.92466Z" fill="#FBCC0B"/>
</svg>
