<svg width="27" height="38" viewBox="0 0 27 38" fill="none" xmlns="http://www.w3.org/2000/svg">
<path fill-rule="evenodd" clip-rule="evenodd" d="M2.37952 4.54889C2.37952 3.68187 3.09091 2.96417 3.98684 2.96417H23.3821C24.2781 2.96417 24.9895 3.68187 24.9895 4.54889V12.8328H2.37952V4.54889ZM0.379517 13.8328V31.5565C0.379517 33.5445 2.0028 35.1412 3.98684 35.1412H4.88648V36.4201C4.88648 36.9724 5.33419 37.4201 5.88648 37.4201C6.43876 37.4201 6.88648 36.9724 6.88648 36.4201V35.1412H20.4825V36.4201C20.4825 36.9724 20.9302 37.4201 21.4825 37.4201C22.0348 37.4201 22.4825 36.9724 22.4825 36.4201V35.1412H23.3821C25.3662 35.1412 26.9895 33.5445 26.9895 31.5565V4.54889C26.9895 2.56091 25.3662 0.964172 23.3821 0.964172H3.98684C2.0028 0.964172 0.379517 2.56091 0.379517 4.54889V13.8328ZM2.37952 14.8328H24.9895V31.5565C24.9895 32.4236 24.2781 33.1412 23.3821 33.1412L21.4825 33.1412H5.88648L3.98684 33.1412C3.09091 33.1412 2.37952 32.4236 2.37952 31.5565V14.8328ZM6.88648 6.89093C6.88648 6.33865 6.43876 5.89093 5.88648 5.89093C5.33419 5.89093 4.88648 6.33865 4.88648 6.89093V9.16979C4.88648 9.72207 5.33419 10.1698 5.88648 10.1698C6.43876 10.1698 6.88648 9.72207 6.88648 9.16979V6.89093ZM5.88648 17.4957C6.43876 17.4957 6.88648 17.9434 6.88648 18.4957V25.5695C6.88648 26.1218 6.43876 26.5695 5.88648 26.5695C5.33419 26.5695 4.88648 26.1218 4.88648 25.5695V18.4957C4.88648 17.9434 5.33419 17.4957 5.88648 17.4957Z" fill="#FBCC0B"/>
</svg>
