<svg width="135" height="28" viewBox="0 0 135 28" fill="none" xmlns="http://www.w3.org/2000/svg">
<path fill-rule="evenodd" clip-rule="evenodd" d="M67.0042 27.0031C67.0042 27.3981 67.238 27.7183 67.5265 27.7183C67.815 27.7183 68.0488 27.3981 68.0488 27.0031V15.7418H133.861V26.8064C133.861 27.2014 134.095 27.5217 134.383 27.5217C134.672 27.5217 134.906 27.2014 134.906 26.8064V15.04C134.906 15.0355 134.906 15.031 134.906 15.0265C134.906 15.0018 134.905 14.9774 134.903 14.9533C134.881 14.6574 134.727 14.4147 134.524 14.3372C134.479 14.3202 134.432 14.311 134.383 14.311C134.38 14.311 134.376 14.3111 134.373 14.3112H68.0488V1.62011C68.0488 1.22508 67.815 0.904846 67.5265 0.904846C67.238 0.904846 67.0042 1.22508 67.0042 1.62011V14.3112H1.71418C1.42571 14.3112 1.19186 14.6314 1.19186 15.0265C1.19186 15.4215 1.42571 15.7418 1.71418 15.7418H67.0042V27.0031ZM0.669522 27.5217C0.381061 27.5217 0.147217 27.2014 0.147217 26.8064V15.0263C0.147217 14.6312 0.38106 14.311 0.669521 14.311C0.957982 14.311 1.19183 14.6312 1.19183 15.0263L1.19183 26.8064C1.19183 27.2014 0.957982 27.5217 0.669522 27.5217Z" fill="#FBCC0B"/>
</svg>
