<svg width="37" height="30" viewBox="0 0 37 30" fill="none" xmlns="http://www.w3.org/2000/svg">
<path fill-rule="evenodd" clip-rule="evenodd" d="M3.48679 0.876831C1.82993 0.876831 0.486786 2.21998 0.486786 3.87683V20.4539C0.486786 22.1108 1.82993 23.4539 3.48679 23.4539H33.458C35.1149 23.4539 36.458 22.1108 36.458 20.4539V3.87683C36.458 2.21998 35.1149 0.876831 33.458 0.876831H3.48679ZM2.48679 3.87683C2.48679 3.32455 2.9345 2.87683 3.48679 2.87683H33.458C34.0103 2.87683 34.458 3.32455 34.458 3.87683V20.4539C34.458 21.0062 34.0103 21.4539 33.458 21.4539H3.48679C2.9345 21.4539 2.48679 21.0062 2.48679 20.4539V3.87683ZM24.2847 7.87339C24.7564 7.58612 24.9059 6.97086 24.6186 6.49916C24.3314 6.02747 23.7161 5.87797 23.2444 6.16524L11.0809 13.5731C10.6092 13.8604 10.4597 14.4757 10.747 14.9474C11.0342 15.4191 11.6495 15.5686 12.1212 15.2813L24.2847 7.87339ZM22.5953 12.7527C23.067 12.4655 23.2166 11.8502 22.9294 11.3785C22.6422 10.9068 22.0269 10.7572 21.5552 11.0444L15.9289 14.4701C15.4571 14.7573 15.3075 15.3725 15.5948 15.8442C15.882 16.316 16.4972 16.4655 16.9689 16.1783L22.5953 12.7527ZM13.2537 24.9492C13.806 24.9492 14.2537 25.3969 14.2537 25.9492V27.8182H22.6911V25.9492C22.6911 25.3969 23.1388 24.9492 23.6911 24.9492C24.2434 24.9492 24.6911 25.3969 24.6911 25.9492V27.8182H35.458C36.0103 27.8182 36.458 28.2659 36.458 28.8182C36.458 29.3705 36.0103 29.8182 35.458 29.8182H1.48679C0.934501 29.8182 0.486786 29.3705 0.486786 28.8182C0.486786 28.2659 0.934501 27.8182 1.48679 27.8182H12.2537V25.9492C12.2537 25.3969 12.7014 24.9492 13.2537 24.9492Z" fill="#FBCC0B"/>
</svg>
