<svg width="44" height="36" viewBox="0 0 44 36" fill="none" xmlns="http://www.w3.org/2000/svg">
<path fill-rule="evenodd" clip-rule="evenodd" d="M29.2732 0.369528C29.3933 0.353249 29.5107 0.367012 29.6175 0.405049H35.6092C36.1716 0.402434 36.7198 0.584639 37.168 0.924264C37.6167 1.26429 37.9401 1.74319 38.086 2.2867L38.0861 2.28729L40.2487 10.2707C40.2771 10.3354 40.2963 10.405 40.3049 10.4778L43.0347 20.5552C43.0369 20.5632 43.0389 20.5712 43.0408 20.5792C43.152 21.0526 43.1553 21.5447 43.0502 22.0195C42.9452 22.4943 42.7346 22.9394 42.4344 23.3224C42.1341 23.7054 41.7518 24.0166 41.3156 24.2337C40.8795 24.4508 40.4003 24.5685 39.9129 24.5784L39.8979 23.8441V24.5786H3.57379L3.55879 24.5784C3.07144 24.5685 2.59223 24.4508 2.15609 24.2337C1.71992 24.0166 1.33761 23.7054 1.03736 23.3224C0.737082 22.9394 0.526536 22.4943 0.421499 22.0195C0.31646 21.5447 0.319671 21.0526 0.430915 20.5792C0.432804 20.5712 0.434829 20.5632 0.436989 20.5552L3.16717 10.4766C3.17577 10.4046 3.19478 10.3358 3.22265 10.2718L5.38557 2.28729L5.38582 2.28635C5.5318 1.743 5.85512 1.26422 6.30373 0.924264C6.75191 0.584639 7.30011 0.402434 7.86255 0.405049H13.8458C13.9526 0.367041 14.0698 0.35327 14.1899 0.369492C14.2412 0.376414 14.2904 0.388462 14.3373 0.405049H21.4858C21.5627 0.377743 21.6455 0.36288 21.7317 0.36288C21.818 0.36288 21.9007 0.377743 21.9776 0.405049H29.126C29.1728 0.388491 29.222 0.376456 29.2732 0.369528ZM22.4662 1.87407H28.7358L29.8136 9.83013H22.4662V1.87407ZM30.2182 1.87407L31.296 9.83013H38.6074L36.6678 2.66965L36.6673 2.66791C36.6064 2.44099 36.471 2.23925 36.2807 2.09509C36.0904 1.95085 35.8563 1.87274 35.615 1.87406L35.611 1.87407H30.2182ZM22.4662 11.2992H30.0126L31.6125 23.1096H22.4662V11.2992ZM31.495 11.2992L33.095 23.1096H39.8898C40.1582 23.1031 40.4215 23.0378 40.661 22.9186C40.9024 22.7984 41.1132 22.6265 41.2783 22.416C41.4433 22.2055 41.5585 21.9616 41.6159 21.7022C41.6725 21.4464 41.6715 21.1816 41.6133 20.9263L39.0054 11.2992H31.495ZM13.2455 1.87407H7.8607H7.85666V1.87406C7.61544 1.87274 7.38131 1.95085 7.19098 2.09509C7.00076 2.23924 6.8653 2.44097 6.80443 2.66791L6.80396 2.66965L4.86426 9.83013H12.1706L13.2455 1.87407ZM13.653 9.83013L14.7278 1.87407H20.9972V9.83013H13.653ZM11.9722 11.2992H4.46632L1.85843 20.9263C1.80016 21.1816 1.79926 21.4464 1.85584 21.7022C1.91324 21.9616 2.02844 22.2055 2.19346 22.416C2.3585 22.6266 2.56928 22.7984 2.81073 22.9186C3.05016 23.0378 3.31355 23.1031 3.58192 23.1096H10.3766L11.9722 11.2992ZM11.859 23.1096L13.4546 11.2992H20.9972V23.1096H11.859ZM19.2874 29.495C19.2874 29.0894 18.9586 28.7605 18.5529 28.7605C18.1473 28.7605 17.8184 29.0894 17.8184 29.495V34.2435H12.5552C12.1496 34.2435 11.8207 34.5724 11.8207 34.978C11.8207 35.3837 12.1496 35.7126 12.5552 35.7126H30.9168C31.3224 35.7126 31.6513 35.3837 31.6513 34.978C31.6513 34.5724 31.3224 34.2435 30.9168 34.2435H25.1635V29.495C25.1635 29.0894 24.8347 28.7605 24.429 28.7605C24.0234 28.7605 23.6945 29.0894 23.6945 29.495V34.2435H19.2874V29.495Z" fill="#FBCC0B"/>
</svg>
